<svg width="97" height="34" viewBox="0 0 97 34" fill="none" xmlns="http://www.w3.org/2000/svg">
<path d="M10.44 24.48C7.688 24.48 5.512 23.624 3.912 21.912C2.328 20.184 1.536 18.016 1.536 15.408C1.536 12.784 2.4 10.616 4.128 8.904C5.856 7.192 8.064 6.336 10.752 6.336C12.88 6.336 14.768 6.6 16.416 7.128C16.496 7.176 16.536 7.24 16.536 7.32C16.536 7.384 16.512 7.632 16.464 8.064C16.256 9.552 16.144 10.64 16.128 11.328C15.888 11.376 15.72 11.4 15.624 11.4C15.528 11.4 15.384 11.368 15.192 11.304C15.048 10.2 14.904 9.376 14.76 8.832C14.344 8.384 13.76 8 13.008 7.68C12.256 7.36 11.4 7.2 10.44 7.2C8.616 7.2 7.104 7.84 5.904 9.12C4.72 10.4 4.128 12.152 4.128 14.376C4.128 15.944 4.384 17.416 4.896 18.792C5.424 20.168 6.2 21.304 7.224 22.2C8.264 23.08 9.496 23.52 10.92 23.52C12.344 23.52 13.608 23.136 14.712 22.368C15.016 21.856 15.392 21 15.84 19.8C16.224 19.8 16.52 19.88 16.728 20.04C16.504 21.192 16.336 22.352 16.224 23.52C16.208 23.696 16.104 23.8 15.912 23.832C14.376 24.264 12.552 24.48 10.44 24.48ZM19.0342 19.1572C19.0342 18.2256 19.2158 17.3877 19.5791 16.6436C19.9482 15.8994 20.458 15.3252 21.1084 14.9209C21.7646 14.5166 22.5117 14.3145 23.3496 14.3145C24.6445 14.3145 25.6904 14.7627 26.4873 15.6592C27.29 16.5557 27.6914 17.748 27.6914 19.2363V19.3506C27.6914 20.2764 27.5127 21.1084 27.1553 21.8467C26.8037 22.5791 26.2969 23.1504 25.6348 23.5605C24.9785 23.9707 24.2227 24.1758 23.3672 24.1758C22.0781 24.1758 21.0322 23.7275 20.2295 22.8311C19.4326 21.9346 19.0342 20.748 19.0342 19.2715V19.1572ZM20.6689 19.3506C20.6689 20.4053 20.9121 21.252 21.3984 21.8906C21.8906 22.5293 22.5469 22.8486 23.3672 22.8486C24.1934 22.8486 24.8496 22.5264 25.3359 21.8818C25.8223 21.2314 26.0654 20.3232 26.0654 19.1572C26.0654 18.1143 25.8164 17.2705 25.3184 16.626C24.8262 15.9756 24.1699 15.6504 23.3496 15.6504C22.5469 15.6504 21.8994 15.9697 21.4072 16.6084C20.915 17.2471 20.6689 18.1611 20.6689 19.3506ZM29.335 19.166C29.335 17.707 29.6807 16.5352 30.3721 15.6504C31.0635 14.7598 31.9688 14.3145 33.0879 14.3145C34.2012 14.3145 35.083 14.6953 35.7334 15.457V10.5H37.3594V24H35.8652L35.7861 22.9805C35.1357 23.7773 34.2305 24.1758 33.0703 24.1758C31.9688 24.1758 31.0693 23.7246 30.3721 22.8223C29.6807 21.9199 29.335 20.7422 29.335 19.2891V19.166ZM30.9609 19.3506C30.9609 20.4287 31.1836 21.2725 31.6289 21.8818C32.0742 22.4912 32.6895 22.7959 33.4746 22.7959C34.5059 22.7959 35.2588 22.333 35.7334 21.4072V17.0391C35.2471 16.1426 34.5 15.6943 33.4922 15.6943C32.6953 15.6943 32.0742 16.002 31.6289 16.6172C31.1836 17.2324 30.9609 18.1436 30.9609 19.3506ZM43.8369 24.1758C42.5479 24.1758 41.499 23.7539 40.6904 22.9102C39.8818 22.0605 39.4775 20.9268 39.4775 19.5088V19.21C39.4775 18.2666 39.6562 17.4258 40.0137 16.6875C40.377 15.9434 40.8809 15.3633 41.5254 14.9473C42.1758 14.5254 42.8789 14.3145 43.6348 14.3145C44.8711 14.3145 45.832 14.7217 46.5176 15.5361C47.2031 16.3506 47.5459 17.5166 47.5459 19.0342V19.7109H41.1035C41.127 20.6484 41.3994 21.4072 41.9209 21.9873C42.4482 22.5615 43.1162 22.8486 43.9248 22.8486C44.499 22.8486 44.9854 22.7314 45.3838 22.4971C45.7822 22.2627 46.1309 21.9521 46.4297 21.5654L47.4229 22.3389C46.626 23.5635 45.4307 24.1758 43.8369 24.1758ZM43.6348 15.6504C42.9785 15.6504 42.4277 15.8906 41.9824 16.3711C41.5371 16.8457 41.2617 17.5137 41.1562 18.375H45.9199V18.252C45.873 17.4258 45.6504 16.7871 45.252 16.3359C44.8535 15.8789 44.3145 15.6504 43.6348 15.6504Z" fill="#FF7175"/>
<path d="M49.6904 24V11.2031H53.874C55.2627 11.2031 56.3057 11.4902 57.0029 12.0645C57.7061 12.6387 58.0576 13.4883 58.0576 14.6133C58.0576 15.2109 57.8877 15.7412 57.5479 16.2041C57.208 16.6611 56.7451 17.0156 56.1592 17.2676C56.8506 17.4609 57.3955 17.8301 57.7939 18.375C58.1982 18.9141 58.4004 19.5586 58.4004 20.3086C58.4004 21.457 58.0283 22.3594 57.2842 23.0156C56.54 23.6719 55.4883 24 54.1289 24H49.6904ZM51.3779 18.0146V22.6201H54.1641C54.9492 22.6201 55.5674 22.418 56.0186 22.0137C56.4756 21.6035 56.7041 21.041 56.7041 20.3262C56.7041 18.7852 55.8662 18.0146 54.1904 18.0146H51.3779ZM51.3779 16.6611H53.9268C54.665 16.6611 55.2539 16.4766 55.6934 16.1074C56.1387 15.7383 56.3613 15.2373 56.3613 14.6045C56.3613 13.9014 56.1562 13.3916 55.7461 13.0752C55.3359 12.7529 54.7119 12.5918 53.874 12.5918H51.3779V16.6611ZM64.5967 24.1758C63.3076 24.1758 62.2588 23.7539 61.4502 22.9102C60.6416 22.0605 60.2373 20.9268 60.2373 19.5088V19.21C60.2373 18.2666 60.416 17.4258 60.7734 16.6875C61.1367 15.9434 61.6406 15.3633 62.2852 14.9473C62.9355 14.5254 63.6387 14.3145 64.3945 14.3145C65.6309 14.3145 66.5918 14.7217 67.2773 15.5361C67.9629 16.3506 68.3057 17.5166 68.3057 19.0342V19.7109H61.8633C61.8867 20.6484 62.1592 21.4072 62.6807 21.9873C63.208 22.5615 63.876 22.8486 64.6846 22.8486C65.2588 22.8486 65.7451 22.7314 66.1436 22.4971C66.542 22.2627 66.8906 21.9521 67.1895 21.5654L68.1826 22.3389C67.3857 23.5635 66.1904 24.1758 64.5967 24.1758ZM64.3945 15.6504C63.7383 15.6504 63.1875 15.8906 62.7422 16.3711C62.2969 16.8457 62.0215 17.5137 61.916 18.375H66.6797V18.252C66.6328 17.4258 66.4102 16.7871 66.0117 16.3359C65.6133 15.8789 65.0742 15.6504 64.3945 15.6504ZM72.4014 12.1875V14.4902H74.1768V15.7471H72.4014V21.6445C72.4014 22.0254 72.4805 22.3125 72.6387 22.5059C72.7969 22.6934 73.0664 22.7871 73.4473 22.7871C73.6348 22.7871 73.8926 22.752 74.2207 22.6816V24C73.793 24.1172 73.377 24.1758 72.9727 24.1758C72.2461 24.1758 71.6982 23.9561 71.3291 23.5166C70.96 23.0771 70.7754 22.4531 70.7754 21.6445V15.7471H69.0439V14.4902H70.7754V12.1875H72.4014ZM78.29 12.1875V14.4902H80.0654V15.7471H78.29V21.6445C78.29 22.0254 78.3691 22.3125 78.5273 22.5059C78.6855 22.6934 78.9551 22.7871 79.3359 22.7871C79.5234 22.7871 79.7812 22.752 80.1094 22.6816V24C79.6816 24.1172 79.2656 24.1758 78.8613 24.1758C78.1348 24.1758 77.5869 23.9561 77.2178 23.5166C76.8486 23.0771 76.6641 22.4531 76.6641 21.6445V15.7471H74.9326V14.4902H76.6641V12.1875H78.29ZM85.9189 24.1758C84.6299 24.1758 83.5811 23.7539 82.7725 22.9102C81.9639 22.0605 81.5596 20.9268 81.5596 19.5088V19.21C81.5596 18.2666 81.7383 17.4258 82.0957 16.6875C82.459 15.9434 82.9629 15.3633 83.6074 14.9473C84.2578 14.5254 84.9609 14.3145 85.7168 14.3145C86.9531 14.3145 87.9141 14.7217 88.5996 15.5361C89.2852 16.3506 89.6279 17.5166 89.6279 19.0342V19.7109H83.1855C83.209 20.6484 83.4814 21.4072 84.0029 21.9873C84.5303 22.5615 85.1982 22.8486 86.0068 22.8486C86.5811 22.8486 87.0674 22.7314 87.4658 22.4971C87.8643 22.2627 88.2129 21.9521 88.5117 21.5654L89.5049 22.3389C88.708 23.5635 87.5127 24.1758 85.9189 24.1758ZM85.7168 15.6504C85.0605 15.6504 84.5098 15.8906 84.0645 16.3711C83.6191 16.8457 83.3438 17.5137 83.2383 18.375H88.002V18.252C87.9551 17.4258 87.7324 16.7871 87.334 16.3359C86.9355 15.8789 86.3965 15.6504 85.7168 15.6504ZM96.1143 15.9492C95.8682 15.9082 95.6016 15.8877 95.3145 15.8877C94.248 15.8877 93.5244 16.3418 93.1436 17.25V24H91.5176V14.4902H93.0996L93.126 15.5889C93.6592 14.7393 94.415 14.3145 95.3936 14.3145C95.71 14.3145 95.9502 14.3555 96.1143 14.4375V15.9492Z" fill="black"/>
<rect y="31" width="63" height="2" fill="#FF7175"/>
</svg>
